<?xml version="1.0" encoding="iso-8859-1"?>
<!-- Generator: Adobe Illustrator 19.0.0, SVG Export Plug-In . SVG Version: 6.00 Build 0)  -->
<svg version="1.1" id="Layer_1" xmlns="http://www.w3.org/2000/svg" xmlns:xlink="http://www.w3.org/1999/xlink" x="0px" y="0px"
	 viewBox="0 0 512.001 512.001" style="enable-background:new 0 0 512.001 512.001;" xml:space="preserve">
<path style="fill:#FFFFFF;" d="M323.601,210.328v-11.335c0-14.448,11.699-26.158,26.137-26.158h79.652V48.588H10.449v306.862
	h313.152V210.328z"/>
<path style="fill:#10BAFC;" d="M475.414,172.835H349.738c-14.437,0-26.137,11.71-26.137,26.158v11.335v214.027v12.899
	c0,14.449,11.699,26.158,26.137,26.158h125.676c14.431,0,26.137-11.709,26.137-26.158v-12.899V210.328v-11.335
	C501.551,184.545,489.845,172.835,475.414,172.835z"/>
<rect x="323.605" y="210.328" style="fill:#FFFFFF;" width="177.946" height="214.026"/>
<rect x="10.449" y="305.894" style="fill:#3F5968;" width="313.156" height="49.56"/>
<g>
	<rect x="353.228" y="240.975" style="fill:#92E03F;" width="118.262" height="76.151"/>
	<rect x="63.6" y="93.676" style="fill:#92E03F;" width="118.262" height="76.151"/>
</g>
<path d="M475.414,162.386h-35.577V48.588c0-5.77-4.679-10.449-10.449-10.449H10.449C4.679,38.139,0,42.818,0,48.588v306.862
	c0,5.77,4.679,10.449,10.449,10.449h160.049l-5.617,37.223h-24.475c-5.77,0-10.449,4.679-10.449,10.449s4.679,10.449,10.449,10.449
	h33.464h92.097h0.021h33.444c5.77,0,10.449-4.679,10.449-10.449s-4.679-10.449-10.449-10.449h-24.474L269.34,365.9h43.813v58.456
	v12.899c0,20.185,16.412,36.607,36.586,36.607h125.676c20.174,0,36.586-16.422,36.586-36.607v-12.899V210.328v-11.335
	C512,178.808,495.588,162.386,475.414,162.386z M186.014,403.123l5.618-37.223h56.573l5.618,37.223H186.014z M313.152,198.993
	v11.335v87.71c-1.838-1.609-4.239-2.592-6.873-2.592h-32.631c-5.77,0-10.449,4.679-10.449,10.449s4.679,10.449,10.449,10.449h32.631
	c2.634,0,5.035-0.983,6.873-2.592v31.251h-55.956h-74.555H20.898v-28.658h225.245c5.77,0,10.449-4.679,10.449-10.449
	s-4.679-10.449-10.449-10.449H20.898V59.037h398.041v103.349h-69.202C329.564,162.386,313.152,178.808,313.152,198.993z
	 M349.738,452.964c-8.65,0-15.688-7.047-15.688-15.709v-2.45h71.574c-2.729,2.095-4.5,5.38-4.5,9.079c0,3.699,1.77,6.984,4.5,9.079
	h-55.886V452.964z M415.153,452.964h-5.153c-3.958-1.125-6.869-4.766-6.869-9.079s2.911-7.954,6.869-9.079h5.153
	c3.959,1.125,6.87,4.766,6.87,9.079S419.112,451.838,415.153,452.964z M491.102,437.255c0,8.662-7.037,15.709-15.688,15.709h-55.887
	c2.729-2.095,4.5-5.38,4.5-9.079s-1.771-6.984-4.5-9.079h71.576V437.255z M491.102,413.907H334.05v-58.456V220.777h157.052V413.907z
	 M491.102,199.879H334.05v-0.886c0-8.662,7.037-15.709,15.688-15.709h79.652h46.026c8.65,0,15.688,7.047,15.688,15.709v0.886
	H491.102z"/>
<path d="M353.225,327.571h118.265c5.77,0,10.449-4.679,10.449-10.449v-76.151c0-5.77-4.679-10.449-10.449-10.449H353.225
	c-5.77,0-10.449,4.679-10.449,10.449v76.151C342.776,322.893,347.454,327.571,353.225,327.571z M363.674,251.42h97.368v55.253
	h-97.368V251.42z"/>
<path d="M353.193,365.689h118.265c5.77,0,10.449-4.679,10.449-10.449s-4.679-10.449-10.449-10.449H353.193
	c-5.77,0-10.449,4.679-10.449,10.449S347.422,365.689,353.193,365.689z"/>
<path d="M353.193,398.714h118.265c5.77,0,10.449-4.679,10.449-10.449s-4.679-10.449-10.449-10.449H353.193
	c-5.77,0-10.449,4.679-10.449,10.449S347.422,398.714,353.193,398.714z"/>
<path d="M63.6,180.277h118.266c5.77,0,10.449-4.679,10.449-10.449V93.677c0-5.77-4.679-10.449-10.449-10.449H63.6
	c-5.77,0-10.449,4.679-10.449,10.449v76.151C53.151,175.599,57.83,180.277,63.6,180.277z M74.049,104.126h97.368v55.253H74.049
	V104.126z"/>
<path d="M63.577,218.386h226.395c5.77,0,10.449-4.679,10.449-10.449s-4.679-10.449-10.449-10.449H63.577
	c-5.77,0-10.449,4.679-10.449,10.449S57.806,218.386,63.577,218.386z"/>
<path d="M63.568,251.42h226.395c5.77,0,10.449-4.679,10.449-10.449s-4.679-10.449-10.449-10.449H63.568
	c-5.77,0-10.449,4.679-10.449,10.449S57.797,251.42,63.568,251.42z"/>
<path d="M300.412,274.003c0-5.77-4.679-10.449-10.449-10.449H63.568c-5.77,0-10.449,4.679-10.449,10.449s4.679,10.449,10.449,10.449
	h226.395C295.733,284.452,300.412,279.774,300.412,274.003z"/>
<g>
</g>
<g>
</g>
<g>
</g>
<g>
</g>
<g>
</g>
<g>
</g>
<g>
</g>
<g>
</g>
<g>
</g>
<g>
</g>
<g>
</g>
<g>
</g>
<g>
</g>
<g>
</g>
<g>
</g>
</svg>
