<?xml version="1.0" standalone="no"?>
<!DOCTYPE svg PUBLIC "-//W3C//DTD SVG 20010904//EN"
 "http://www.w3.org/TR/2001/REC-SVG-20010904/DTD/svg10.dtd">
<svg version="1.0" xmlns="http://www.w3.org/2000/svg"
 width="391.000000pt" height="391.000000pt" viewBox="0 0 391.000000 391.000000"
 preserveAspectRatio="xMidYMid meet">
<metadata>
Created by potrace 1.14, written by Peter Selinger 2001-2017
</metadata>
<g transform="translate(0.000000,391.000000) scale(0.100000,-0.100000)"
fill="#000000" stroke="none">
<path d="M1728 3814 c-54 -7 -106 -18 -116 -23 -11 -6 -22 -8 -25 -5 -3 3 -25
0 -48 -6 -24 -7 -54 -14 -66 -16 -13 -2 -76 -23 -140 -45 -513 -180 -945 -607
-1125 -1114 -41 -114 -55 -159 -62 -195 -2 -14 -9 -47 -16 -75 -26 -114 -39
-255 -35 -395 3 -128 27 -348 39 -369 3 -4 8 -22 11 -40 15 -85 74 -246 144
-392 80 -167 211 -349 356 -494 78 -77 116 -111 200 -174 22 -17 45 -35 52
-41 7 -5 16 -10 22 -10 5 0 11 -4 13 -8 4 -11 155 -99 228 -134 148 -70 305
-123 458 -153 96 -19 123 -15 141 18 17 32 20 842 3 874 -7 12 -37 29 -74 42
-70 25 -111 45 -208 103 -36 21 -74 44 -85 51 -51 31 -202 196 -234 257 -19
36 -38 67 -43 68 -4 2 -8 7 -8 12 0 4 -8 25 -17 46 -19 43 -49 145 -64 214
-12 56 -15 223 -5 270 4 19 9 44 11 55 13 69 20 99 45 171 58 174 233 367 433
481 33 18 64 33 70 33 6 0 18 7 28 16 47 43 373 79 489 53 25 -5 54 -11 65
-13 11 -2 35 -9 53 -14 18 -6 35 -11 38 -10 12 0 120 -46 135 -59 8 -7 18 -13
22 -13 16 0 108 -72 179 -139 125 -118 240 -304 277 -446 20 -76 -16 -70 452
-70 274 0 429 3 443 10 42 21 45 46 19 168 -55 263 -111 409 -236 621 -107
181 -231 327 -387 455 -36 30 -67 57 -70 60 -11 14 -189 130 -250 163 -186
101 -430 179 -650 209 -124 16 -350 18 -462 3z"/>
<path d="M2108 2027 c-9 -6 -8 -7 4 -3 10 3 20 0 24 -5 4 -8 -11 -9 -47 -5
-30 3 -64 6 -77 6 -32 0 -75 -35 -103 -83 l-23 -42 -1 -869 c0 -577 3 -877 10
-890 6 -12 23 -27 38 -34 38 -19 45 -14 256 196 98 97 218 216 267 263 49 47
109 106 133 132 24 26 48 47 55 47 6 0 31 -23 56 -52 71 -81 143 -149 170
-160 40 -16 91 -18 124 -4 30 13 417 390 415 404 -1 4 -1 9 1 12 8 21 10 60 5
89 -5 26 -33 60 -120 146 -105 105 -112 115 -99 133 13 20 49 56 196 198 261
255 428 432 428 456 0 32 -19 56 -50 61 -14 2 -19 2 -12 0 10 -4 10 -8 1 -19
-16 -20 -29 -17 -29 5 0 19 -9 20 -207 21 -115 0 -217 0 -228 1 -50 0 -441 0
-750 -1 -379 -1 -349 -1 -392 3 -18 2 -38 0 -45 -6z m1542 -22 c-7 -9 -15 -13
-19 -10 -3 3 1 10 9 15 21 14 24 12 10 -5z m-1572 -83 c-16 -9 -28 -20 -28
-25 0 -4 -4 -5 -10 -2 -5 3 -10 12 -10 20 0 14 19 22 55 24 17 0 15 -2 -7 -17z
m1722 5 c0 -2 -12 -14 -27 -28 l-26 -24 19 27 c16 23 34 36 34 25z"/>
</g>
</svg>
